<svg width="25" height="24" viewBox="0 0 25 24" fill="none" xmlns="http://www.w3.org/2000/svg">
<path d="M13.7673 4.2095C13.4674 3.9238 12.9926 3.9354 12.7069 4.2353C12.4212 4.5352 12.4328 5.01 12.7327 5.2957L18.9841 11.2503L4.25 11.2503C3.8358 11.2503 3.5 11.5861 3.5 12.0003C3.5 12.4145 3.8358 12.7503 4.25 12.7503L18.9842 12.7503L12.7327 18.705C12.4328 18.9907 12.4213 19.4654 12.7069 19.7653C12.9926 20.0652 13.4674 20.0768 13.7673 19.7911L21.1862 12.7244C21.3551 12.5635 21.4551 12.3583 21.4861 12.1449C21.4952 12.0981 21.5 12.0497 21.5 12.0003C21.5 11.9507 21.4952 11.9023 21.486 11.8554C21.455 11.6421 21.355 11.437 21.1862 11.2762L13.7673 4.2095Z" fill="#FF1721"/>
</svg>
