<svg width="30" height="30" viewBox="0 0 30 30" fill="none" xmlns="http://www.w3.org/2000/svg">
<path d="M13.4159 24.7381C13.7908 25.0953 14.3843 25.0807 14.7414 24.7059C15.0985 24.331 15.084 23.7375 14.7091 23.3804L6.89484 15.9371H25.3125C25.8302 15.9371 26.25 15.5174 26.25 14.9996C26.25 14.4819 25.8302 14.0621 25.3125 14.0621H6.89471L14.7091 6.61878C15.084 6.26166 15.0984 5.66825 14.7414 5.29334C14.3843 4.91844 13.7908 4.904 13.4159 5.26111L4.14224 14.0945C3.93108 14.2956 3.80614 14.5521 3.76741 14.8189C3.75599 14.8774 3.75 14.9379 3.75 14.9996C3.75 15.0616 3.75601 15.1221 3.76747 15.1807C3.80627 15.4474 3.9312 15.7037 4.14224 15.9047L13.4159 24.7381Z" fill="black"/>
</svg>
