<svg width="30" height="30" viewBox="0 0 30 30" fill="none" xmlns="http://www.w3.org/2000/svg">
<g clip-path="url(#clip0_138_783)">
<rect width="30" height="30" rx="4" fill="#FF1721"/>
<path d="M24.2504 9.175L20.8254 5.75C20.3784 5.33012 19.7926 5.0892 19.1795 5.07306C18.5665 5.05693 17.9688 5.26671 17.5004 5.6625L6.25037 16.9125C5.84633 17.32 5.59475 17.854 5.53787 18.425L5.00037 23.6375C4.98353 23.8206 5.00729 24.0051 5.06995 24.178C5.13261 24.3508 5.23262 24.5077 5.36287 24.6375C5.47967 24.7534 5.61819 24.845 5.77049 24.9072C5.92278 24.9694 6.08586 25.001 6.25037 25H6.36287L11.5754 24.525C12.1464 24.4681 12.6804 24.2165 13.0879 23.8125L24.3379 12.5625C24.7745 12.1012 25.0105 11.4856 24.9941 10.8507C24.9777 10.2157 24.7102 9.61313 24.2504 9.175ZM11.3504 22.025L7.60037 22.375L7.93787 18.625L15.0004 11.65L18.3754 15.025L11.3504 22.025ZM20.0004 13.35L16.6504 10L19.0879 7.5L22.5004 10.9125L20.0004 13.35Z" fill="white"/>
</g>
<defs>
<clipPath id="clip0_138_783">
<rect width="30" height="30" rx="4" fill="white"/>
</clipPath>
</defs>
</svg>
